<svg id="calendar" xmlns="http://www.w3.org/2000/svg" width="38.605" height="38.605" viewBox="0 0 38.605 38.605">
  <path id="Path_123" data-name="Path 123" d="M0,0H38.605V38.605H0Z" fill="none"/>
  <path id="Path_124" data-name="Path 124" d="M26.128,4.217h6.434a1.609,1.609,0,0,1,1.609,1.609V31.563a1.609,1.609,0,0,1-1.609,1.609H3.609A1.609,1.609,0,0,1,2,31.563V5.826A1.609,1.609,0,0,1,3.609,4.217h6.434V1H13.26V4.217h9.651V1h3.217ZM22.911,7.434H13.26v3.217H10.043V7.434H5.217v6.434H30.954V7.434H26.128v3.217H22.911Zm8.043,9.651H5.217V29.954H30.954Z" transform="translate(1.217 0.609)"/>
</svg>
